<svg width="1440" height="900" viewBox="0 0 1440 900" xmlns="http://www.w3.org/2000/svg">
  <!-- 背景渐变 -->
  <defs>
    <linearGradient id="bgGradient" x1="0%" y1="0%" x2="100%" y2="100%">
      <stop offset="0%" style="stop-color:#FFE4E1;stop-opacity:1" />
      <stop offset="100%" style="stop-color:#FFC0CB;stop-opacity:1" />
    </linearGradient>
    
    <!-- 阴影效果 -->
    <filter id="softShadow">
      <feGaussianBlur in="SourceAlpha" stdDeviation="8"/>
      <feOffset dx="0" dy="4" result="offsetblur"/>
      <feFlood flood-color="#000000" flood-opacity="0.1"/>
      <feComposite in2="offsetblur" operator="in"/>
      <feMerge>
        <feMergeNode/>
        <feMergeNode in="SourceGraphic"/>
      </feMerge>
    </filter>
  </defs>
  
  <!-- 主背景 -->
  <rect width="1440" height="900" fill="url(#bgGradient)"/>
  
  <!-- 顶部导航栏 -->
  <rect x="0" y="0" width="1440" height="70" fill="white" opacity="0.95"/>
  
  <!-- Logo区域 -->
  <circle cx="60" cy="35" r="20" fill="#409EFF"/>
  <text x="90" y="40" font-family="Arial, sans-serif" font-size="18" font-weight="500" fill="#333">校园通后台管理系统</text>
  
  <!-- 用户头像和菜单 -->
  <circle cx="1300" cy="35" r="25" fill="#E6F2FF" stroke="#409EFF" stroke-width="2"/>
  <text x="1340" y="40" font-family="Arial, sans-serif" font-size="14" fill="#666">管理员</text>
  
  <!-- 侧边栏 -->
  <rect x="0" y="70" width="240" height="830" fill="white" opacity="0.95" filter="url(#softShadow)"/>
  
  <!-- 侧边栏菜单项 -->
  <rect x="20" y="120" width="200" height="50" fill="white" rx="8" stroke="#E0E0E0" stroke-width="1"/>
  <text x="70" y="150" font-family="Arial, sans-serif" font-size="16" fill="#333">🏠 首页</text>
  
  <rect x="20" y="190" width="200" height="50" fill="white" rx="8" stroke="#E0E0E0" stroke-width="1"/>
  <text x="70" y="220" font-family="Arial, sans-serif" font-size="16" fill="#333">👥 用户管理</text>
  
  <rect x="20" y="260" width="200" height="50" fill="white" rx="8" stroke="#E0E0E0" stroke-width="1"/>
  <text x="70" y="290" font-family="Arial, sans-serif" font-size="16" fill="#333">🔐 角色管理</text>
  
  <rect x="20" y="330" width="200" height="50" fill="#409EFF" rx="8"/>
  <text x="70" y="360" font-family="Arial, sans-serif" font-size="16" font-weight="500" fill="white">💳 消费记录</text>
  
  <rect x="20" y="400" width="200" height="50" fill="white" rx="8" stroke="#E0E0E0" stroke-width="1"/>
  <text x="70" y="430" font-family="Arial, sans-serif" font-size="16" fill="#333">📢 通知公告</text>
  
  <!-- 面包屑导航 -->
  <text x="270" y="110" font-family="Arial, sans-serif" font-size="14" fill="#666">首页 / 消费记录</text>
  
  <!-- 主内容区域 -->
  <rect x="270" y="130" width="1150" height="750" fill="white" rx="12" filter="url(#softShadow)"/>
  
  <!-- 页面标题和操作区 -->
  <text x="300" y="170" font-family="Arial, sans-serif" font-size="24" font-weight="bold" fill="#333">消费记录查询</text>
  
  <!-- 筛选条件区域 -->
  <rect x="300" y="190" width="1090" height="100" fill="#F5F5F5" rx="12"/>
  
  <!-- 时间选择器 -->
  <text x="320" y="210" font-family="Arial, sans-serif" font-size="14" fill="#333">时间范围：</text>
  <rect x="320" y="220" width="120" height="30" fill="white" rx="6" stroke="#E0E0E0" stroke-width="1"/>
  <text x="330" y="240" font-family="Arial, sans-serif" font-size="12" fill="#333">2024-01-01</text>
  
  <text x="450" y="240" font-family="Arial, sans-serif" font-size="12" fill="#333">至</text>
  
  <rect x="470" y="220" width="120" height="30" fill="white" rx="6" stroke="#E0E0E0" stroke-width="1"/>
  <text x="480" y="240" font-family="Arial, sans-serif" font-size="12" fill="#333">2024-01-31</text>
  
  <!-- 用户选择 -->
  <text x="620" y="210" font-family="Arial, sans-serif" font-size="14" fill="#333">用户：</text>
  <rect x="620" y="220" width="150" height="30" fill="white" rx="6" stroke="#E0E0E0" stroke-width="1"/>
  <text x="630" y="240" font-family="Arial, sans-serif" font-size="12" fill="#999">全部用户</text>
  
  <!-- 消费类型 -->
  <text x="790" y="210" font-family="Arial, sans-serif" font-size="14" fill="#333">消费类型：</text>
  <rect x="790" y="220" width="120" height="30" fill="white" rx="6" stroke="#E0E0E0" stroke-width="1"/>
  <text x="800" y="240" font-family="Arial, sans-serif" font-size="12" fill="#999">全部类型</text>
  
  <!-- 状态筛选 -->
  <text x="930" y="210" font-family="Arial, sans-serif" font-size="14" fill="#333">状态：</text>
  <rect x="930" y="220" width="100" height="30" fill="white" rx="6" stroke="#E0E0E0" stroke-width="1"/>
  <text x="940" y="240" font-family="Arial, sans-serif" font-size="12" fill="#999">全部状态</text>
  
  <!-- 搜索按钮 -->
  <rect x="1050" y="210" width="80" height="40" fill="#409EFF" rx="8"/>
  <text x="1070" y="235" font-family="Arial, sans-serif" font-size="14" font-weight="500" fill="white">查询</text>
  
  <!-- 重置按钮 -->
  <rect x="1140" y="210" width="80" height="40" fill="white" rx="8" stroke="#E0E0E0" stroke-width="1"/>
  <text x="1160" y="235" font-family="Arial, sans-serif" font-size="14" fill="#333">重置</text>
  
  <!-- 统计卡片 -->
  <rect x="300" y="310" width="200" height="80" fill="#E6F7FF" rx="12" stroke="#409EFF" stroke-width="1"/>
  <text x="320" y="335" font-family="Arial, sans-serif" font-size="14" fill="#333">总消费金额</text>
  <text x="320" y="365" font-family="Arial, sans-serif" font-size="20" font-weight="bold" fill="#409EFF">¥45,678.90</text>
  
  <rect x="520" y="310" width="200" height="80" fill="#FFF7E6" rx="12" stroke="#FFA940" stroke-width="1"/>
  <text x="540" y="335" font-family="Arial, sans-serif" font-size="14" fill="#333">消费笔数</text>
  <text x="540" y="365" font-family="Arial, sans-serif" font-size="20" font-weight="bold" fill="#FFA940">1,234</text>
  
  <rect x="740" y="310" width="200" height="80" fill="#F6FFED" rx="12" stroke="#52C41A" stroke-width="1"/>
  <text x="760" y="335" font-family="Arial, sans-serif" font-size="14" fill="#333">平均消费</text>
  <text x="760" y="365" font-family="Arial, sans-serif" font-size="20" font-weight="bold" fill="#52C41A">¥37.02</text>
  
  <rect x="960" y="310" width="200" height="80" fill="#FFF0F6" rx="12" stroke="#FF4D94" stroke-width="1"/>
  <text x="980" y="335" font-family="Arial, sans-serif" font-size="14" fill="#333">退款金额</text>
  <text x="980" y="365" font-family="Arial, sans-serif" font-size="20" font-weight="bold" fill="#FF4D94">¥1,234.56</text>
  
  <!-- 消费记录表格 -->
  <rect x="300" y="410" width="1090" height="400" fill="white" rx="12" filter="url(#softShadow)"/>
  
  <!-- 表格头部 -->
  <rect x="300" y="410" width="1090" height="50" fill="#F5F5F5" rx="12"/>
  <text x="320" y="440" font-family="Arial, sans-serif" font-size="14" font-weight="500" fill="#333">订单号</text>
  <text x="450" y="440" font-family="Arial, sans-serif" font-size="14" font-weight="500" fill="#333">用户</text>
  <text x="600" y="440" font-family="Arial, sans-serif" font-size="14" font-weight="500" fill="#333">消费类型</text>
  <text x="750" y="440" font-family="Arial, sans-serif" font-size="14" font-weight="500" fill="#333">金额</text>
  <text x="850" y="440" font-family="Arial, sans-serif" font-size="14" font-weight="500" fill="#333">状态</text>
  <text x="950" y="440" font-family="Arial, sans-serif" font-size="14" font-weight="500" fill="#333">时间</text>
  <text x="1150" y="440" font-family="Arial, sans-serif" font-size="14" font-weight="500" fill="#333">操作</text>
  
  <!-- 消费记录数据 -->
  <text x="320" y="480" font-family="Arial, sans-serif" font-size="14" fill="#333">202401150001</text>
  <text x="450" y="480" font-family="Arial, sans-serif" font-size="14" fill="#333">张小明</text>
  <text x="600" y="480" font-family="Arial, sans-serif" font-size="14" fill="#333">食堂消费</text>
  <text x="750" y="480" font-family="Arial, sans-serif" font-size="14" fill="#409EFF">¥25.80</text>
  <circle cx="865" cy="475" r="5" fill="#52C41A"/>
  <text x="850" y="480" font-family="Arial, sans-serif" font-size="14" fill="#52C41A">成功</text>
  <text x="950" y="480" font-family="Arial, sans-serif" font-size="14" fill="#333">2024-01-15 12:30</text>
  <text x="1150" y="480" font-family="Arial, sans-serif" font-size="14" fill="#409EFF">详情</text>
  
  <text x="320" y="510" font-family="Arial, sans-serif" font-size="14" fill="#333">202401150002</text>
  <text x="450" y="510" font-family="Arial, sans-serif" font-size="14" fill="#333">李小红</text>
  <text x="600" y="510" font-family="Arial, sans-serif" font-size="14" fill="#333">图书借阅</text>
  <text x="750" y="510" font-family="Arial, sans-serif" font-size="14" fill="#409EFF">¥5.00</text>
  <circle cx="865" cy="505" r="5" fill="#52C41A"/>
  <text x="850" y="510" font-family="Arial, sans-serif" font-size="14" fill="#52C41A">成功</text>
  <text x="950" y="510" font-family="Arial, sans-serif" font-size="14" fill="#333">2024-01-15 11:45</text>
  <text x="1150" y="510" font-family="Arial, sans-serif" font-size="14" fill="#409EFF">详情</text>
  
  <text x="320" y="540" font-family="Arial, sans-serif" font-size="14" fill="#333">202401150003</text>
  <text x="450" y="540" font-family="Arial, sans-serif" font-size="14" fill="#333">王小华</text>
  <text x="600" y="540" font-family="Arial, sans-serif" font-size="14" fill="#333">超市购物</text>
  <text x="750" y="540" font-family="Arial, sans-serif" font-size="14" fill="#409EFF">¥67.50</text>
  <circle cx="865" cy="535" r="5" fill="#FFA940"/>
  <text x="850" y="540" font-family="Arial, sans-serif" font-size="14" fill="#FFA940">处理中</text>
  <text x="950" y="540" font-family="Arial, sans-serif" font-size="14" fill="#333">2024-01-15 10:20</text>
  <text x="1150" y="540" font-family="Arial, sans-serif" font-size="14" fill="#409EFF">详情</text>
  
  <text x="320" y="570" font-family="Arial, sans-serif" font-size="14" fill="#333">202401150004</text>
  <text x="450" y="570" font-family="Arial, sans-serif" font-size="14" fill="#333">赵小强</text>
  <text x="600" y="570" font-family="Arial, sans-serif" font-size="14" fill="#333">打印复印</text>
  <text x="750" y="570" font-family="Arial, sans-serif" font-size="14" fill="#409EFF">¥3.50</text>
  <circle cx="865" cy="565" r="5" fill="#FF4D94"/>
  <text x="850" y="570" font-family="Arial, sans-serif" font-size="14" fill="#FF4D94">已退款</text>
  <text x="950" y="570" font-family="Arial, sans-serif" font-size="14" fill="#333">2024-01-15 09:15</text>
  <text x="1150" y="570" font-family="Arial, sans-serif" font-size="14" fill="#409EFF">详情</text>
  
  <!-- 分页 -->
  <rect x="800" y="780" width="40" height="40" fill="#409EFF" rx="8"/>
  <text x="820" y="805" font-family="Arial, sans-serif" font-size="14" font-weight="500" fill="white">1</text>
  <rect x="850" y="780" width="40" height="40" fill="white" rx="8" stroke="#E0E0E0" stroke-width="1"/>
  <text x="870" y="805" font-family="Arial, sans-serif" font-size="14" fill="#333">2</text>
  <rect x="900" y="780" width="40" height="40" fill="white" rx="8" stroke="#E0E0E0" stroke-width="1"/>
  <text x="920" y="805" font-family="Arial, sans-serif" font-size="14" fill="#333">3</text>
  
  <!-- 装饰性几何图形 -->
  <circle cx="120" cy="800" r="80" fill="#FFA940" opacity="0.2"/>
  <rect x="1000" y="50" width="60" height="60" fill="#52C41A" opacity="0.2" transform="rotate(45 1030 80)"/>
  <polygon points="1300,750 1350,850 1250,850" fill="#FF4D94" opacity="0.2"/>
</svg>