<svg xmlns="http://www.w3.org/2000/svg" width="1440" height="900" viewBox="0 0 1440 900">
<defs>
<linearGradient id="bgPinkCR" x1="0" y1="0" x2="1" y2="0">
<stop offset="0%" stop-color="#FFFFFF"/>
<stop offset="55%" stop-color="#FFFFFF"/>
<stop offset="100%" stop-color="#FDE3E8"/>
</linearGradient>
<linearGradient id="primaryCR" x1="0" y1="0" x2="0" y2="1">
<stop offset="0%" stop-color="#5EA1FF"/>
<stop offset="100%" stop-color="#4C8DFF"/>
</linearGradient>
<filter id="shadowCR" x="-50%" y="-50%" width="200%" height="200%">
<feOffset dx="0" dy="2"/>
<feGaussianBlur stdDeviation="8"/>
<feColorMatrix type="matrix" values="0 0 0 0 0 0 0 0 0 0 0 0 0 0 0 0 0 0 0.12 0"/>
<feBlend mode="normal" in2="SourceGraphic"/>
</filter>
</defs>

<rect x="0" y="0" width="1440" height="900" fill="url(#bgPinkCR)"/>
<rect x="0" y="0" width="1440" height="64" fill="#FFFFFF"/>
<text x="72" y="40" fill="#333333" font-size="18" font-weight="600" font-family="Microsoft YaHei, PingFang SC, Arial">校园通后台管理系统</text>
<circle cx="40" cy="32" r="14" fill="#34C79A"/>

<rect x="0" y="64" width="240" height="836" fill="#FFFFFF"/>
<rect x="239" y="64" width="1" height="836" fill="#E6E6EB"/>
<rect x="24" y="126" width="192" height="40" rx="10" fill="#F5F7FB"/>
<text x="44" y="152" fill="#333333" font-size="14" font-family="Microsoft YaHei, PingFang SC, Arial">概览</text>
<rect x="24" y="174" width="192" height="40" rx="10" fill="#F5F7FB"/>
<text x="44" y="200" fill="#333333" font-size="14" font-family="Microsoft YaHei, PingFang SC, Arial">用户管理</text>
<rect x="24" y="222" width="192" height="40" rx="10" fill="#F5F7FB"/>
<text x="44" y="248" fill="#333333" font-size="14" font-family="Microsoft YaHei, PingFang SC, Arial">角色管理</text>
<rect x="24" y="270" width="192" height="40" rx="10" fill="url(#primaryCR)"/>
<text x="44" y="296" fill="#FFFFFF" font-size="14" font-weight="600" font-family="Microsoft YaHei, PingFang SC, Arial">消费查询</text>
<rect x="24" y="318" width="192" height="40" rx="10" fill="#F5F7FB"/>
<text x="44" y="344" fill="#333333" font-size="14" font-family="Microsoft YaHei, PingFang SC, Arial">通知公告</text>

<text x="260" y="100" fill="#777777" font-size="12" font-family="Microsoft YaHei, PingFang SC, Arial">首页</text>
<text x="304" y="100" fill="#777777" font-size="12" font-family="Microsoft YaHei, PingFang SC, Arial">›</text>
<text x="320" y="100" fill="#333333" font-size="12" font-weight="600" font-family="Microsoft YaHei, PingFang SC, Arial">消费记录查询</text>

<text x="260" y="144" fill="#333333" font-size="22" font-weight="700" font-family="Microsoft YaHei, PingFang SC, Arial">消费记录查询</text>

<rect x="260" y="170" width="1080" height="132" rx="12" fill="#FFFFFF" filter="url(#shadowCR)"/>
<rect x="280" y="192" width="240" height="40" rx="8" fill="#F5F7FB"/>
<text x="292" y="219" fill="#777777" font-size="14" font-family="Microsoft YaHei, PingFang SC, Arial">选择日期范围</text>
<rect x="532" y="192" width="220" height="40" rx="8" fill="#F5F7FB"/>
<text x="544" y="219" fill="#777777" font-size="14" font-family="Microsoft YaHei, PingFang SC, Arial">用户/学号</text>
<rect x="762" y="192" width="160" height="40" rx="8" fill="#F5F7FB"/>
<text x="774" y="219" fill="#777777" font-size="14" font-family="Microsoft YaHei, PingFang SC, Arial">类型</text>
<rect x="932" y="192" width="160" height="40" rx="8" fill="#F5F7FB"/>
<text x="944" y="219" fill="#777777" font-size="14" font-family="Microsoft YaHei, PingFang SC, Arial">状态</text>
<rect x="1102" y="192" width="218" height="40" rx="8" fill="url(#primaryCR)"/>
<text x="1188" y="219" fill="#FFFFFF" font-size="14" font-weight="600" font-family="Microsoft YaHei, PingFang SC, Arial">查询</text>
<rect x="280" y="240" width="220" height="40" rx="8" fill="#FFFFFF" stroke="#E6E6EB"/>
<text x="320" y="267" fill="#333333" font-size="14" font-family="Microsoft YaHei, PingFang SC, Arial">导出结果</text>

<rect x="260" y="322" width="720" height="430" rx="12" fill="#FFFFFF" filter="url(#shadowCR)"/>
<text x="280" y="352" fill="#333333" font-size="16" font-weight="700" font-family="Microsoft YaHei, PingFang SC, Arial">日消费趋势</text>
<rect x="280" y="372" width="680" height="300" rx="8" fill="#F5F7FB"/>
<path d="M300 630 L360 610 L420 540 L480 560 L540 500 L600 520 L660 470 L720 490 L780 440 L940 460" stroke="url(#primaryCR)" stroke-width="3" fill="none"/>
<circle cx="540" cy="500" r="4" fill="#5EA1FF"/>
<circle cx="780" cy="440" r="4" fill="#5EA1FF"/>

<rect x="1000" y="322" width="360" height="430" rx="12" fill="#FFFFFF" filter="url(#shadowCR)"/>
<text x="1020" y="352" fill="#333333" font-size="16" font-weight="700" font-family="Microsoft YaHei, PingFang SC, Arial">查询结果</text>
<rect x="1020" y="372" width="320" height="48" fill="#F9FAFB"/>
<text x="1032" y="402" fill="#777777" font-size="12" font-family="Microsoft YaHei, PingFang SC, Arial">时间</text>
<text x="1120" y="402" fill="#777777" font-size="12" font-family="Microsoft YaHei, PingFang SC, Arial">用户</text>
<text x="1190" y="402" fill="#777777" font-size="12" font-family="Microsoft YaHei, PingFang SC, Arial">类型</text>
<text x="1260" y="402" fill="#777777" font-size="12" font-family="Microsoft YaHei, PingFang SC, Arial">金额</text>
<rect x="1020" y="420" width="320" height="1" fill="#E6E6EB"/>
<rect x="1032" y="432" width="296" height="44" rx="8" fill="#FFFFFF" stroke="#F0F0F0"/>
<text x="1048" y="458" fill="#333333" font-size="14" font-family="Microsoft YaHei, PingFang SC, Arial">08:32</text>
<text x="1120" y="458" fill="#333333" font-size="14" font-family="Microsoft YaHei, PingFang SC, Arial">张小明</text>
<text x="1190" y="458" fill="#333333" font-size="14" font-family="Microsoft YaHei, PingFang SC, Arial">餐饮</text>
<text x="1260" y="458" fill="#333333" font-size="14" font-family="Microsoft YaHei, PingFang SC, Arial">¥18.00</text>
<rect x="1032" y="480" width="296" height="44" rx="8" fill="#FFFFFF" stroke="#F0F0F0"/>
<text x="1048" y="506" fill="#333333" font-size="14" font-family="Microsoft YaHei, PingFang SC, Arial">12:05</text>
<text x="1120" y="506" fill="#333333" font-size="14" font-family="Microsoft YaHei, PingFang SC, Arial">李老师</text>
<text x="1190" y="506" fill="#333333" font-size="14" font-family="Microsoft YaHei, PingFang SC, Arial">超市</text>
<text x="1260" y="506" fill="#333333" font-size="14" font-family="Microsoft YaHei, PingFang SC, Arial">¥32.60</text>

<circle cx="1240" cy="220" r="20" fill="#F8D882" opacity="0.5"/>
<rect x="900" y="720" width="40" height="40" rx="10" fill="#A8DADC" opacity="0.5"/>
</svg>