<svg xmlns="http://www.w3.org/2000/svg" width="1440" height="900" viewBox="0 0 1440 900">
<defs>
<linearGradient id="bgPinkNT" x1="0" y1="0" x2="1" y2="0">
<stop offset="0%" stop-color="#FFFFFF"/>
<stop offset="55%" stop-color="#FFFFFF"/>
<stop offset="100%" stop-color="#FDE3E8"/>
</linearGradient>
<linearGradient id="primaryNT" x1="0" y1="0" x2="0" y2="1">
<stop offset="0%" stop-color="#5EA1FF"/>
<stop offset="100%" stop-color="#4C8DFF"/>
</linearGradient>
<filter id="shadowNT" x="-50%" y="-50%" width="200%" height="200%">
<feOffset dx="0" dy="2"/>
<feGaussianBlur stdDeviation="8"/>
<feColorMatrix type="matrix" values="0 0 0 0 0 0 0 0 0 0 0 0 0 0 0 0 0 0 0.12 0"/>
<feBlend mode="normal" in2="SourceGraphic"/>
</filter>
</defs>

<rect x="0" y="0" width="1440" height="900" fill="url(#bgPinkNT)"/>
<rect x="0" y="0" width="1440" height="64" fill="#FFFFFF"/>
<text x="72" y="40" fill="#333333" font-size="18" font-weight="600" font-family="Microsoft YaHei, PingFang SC, Arial">校园通后台管理系统</text>
<circle cx="40" cy="32" r="14" fill="#34C79A"/>

<rect x="0" y="64" width="240" height="836" fill="#FFFFFF"/>
<rect x="239" y="64" width="1" height="836" fill="#E6E6EB"/>
<rect x="24" y="126" width="192" height="40" rx="10" fill="#F5F7FB"/>
<text x="44" y="152" fill="#333333" font-size="14" font-family="Microsoft YaHei, PingFang SC, Arial">概览</text>
<rect x="24" y="174" width="192" height="40" rx="10" fill="#F5F7FB"/>
<text x="44" y="200" fill="#333333" font-size="14" font-family="Microsoft YaHei, PingFang SC, Arial">用户管理</text>
<rect x="24" y="222" width="192" height="40" rx="10" fill="#F5F7FB"/>
<text x="44" y="248" fill="#333333" font-size="14" font-family="Microsoft YaHei, PingFang SC, Arial">角色管理</text>
<rect x="24" y="270" width="192" height="40" rx="10" fill="#F5F7FB"/>
<text x="44" y="296" fill="#333333" font-size="14" font-family="Microsoft YaHei, PingFang SC, Arial">消费查询</text>
<rect x="24" y="318" width="192" height="40" rx="10" fill="url(#primaryNT)"/>
<text x="44" y="344" fill="#FFFFFF" font-size="14" font-weight="600" font-family="Microsoft YaHei, PingFang SC, Arial">通知公告</text>

<text x="260" y="100" fill="#777777" font-size="12" font-family="Microsoft YaHei, PingFang SC, Arial">首页</text>
<text x="304" y="100" fill="#777777" font-size="12" font-family="Microsoft YaHei, PingFang SC, Arial">›</text>
<text x="320" y="100" fill="#333333" font-size="12" font-weight="600" font-family="Microsoft YaHei, PingFang SC, Arial">通知公告</text>

<text x="260" y="144" fill="#333333" font-size="22" font-weight="700" font-family="Microsoft YaHei, PingFang SC, Arial">通知公告</text>

<rect x="260" y="170" width="1080" height="84" rx="12" fill="#FFFFFF" filter="url(#shadowNT)"/>
<rect x="280" y="192" width="420" height="40" rx="8" fill="#F5F7FB"/>
<text x="292" y="219" fill="#777777" font-size="14" font-family="Microsoft YaHei, PingFang SC, Arial">搜索标题/内容</text>
<rect x="710" y="192" width="160" height="40" rx="8" fill="#F5F7FB"/>
<text x="722" y="219" fill="#777777" font-size="14" font-family="Microsoft YaHei, PingFang SC, Arial">类型</text>
<rect x="880" y="192" width="160" height="40" rx="8" fill="#F5F7FB"/>
<text x="892" y="219" fill="#777777" font-size="14" font-family="Microsoft YaHei, PingFang SC, Arial">状态</text>
<rect x="1050" y="192" width="270" height="40" rx="8" fill="url(#primaryNT)"/>
<text x="1150" y="219" fill="#FFFFFF" font-size="14" font-weight="600" font-family="Microsoft YaHei, PingFang SC, Arial">发布公告</text>

<rect x="260" y="270" width="1080" height="520" rx="12" fill="#FFFFFF" filter="url(#shadowNT)"/>
<rect x="280" y="292" width="1040" height="72" rx="10" fill="#F5F7FB"/>
<rect x="292" y="304" width="64" height="28" rx="14" fill="#F8D882"/>
<text x="305" y="322" fill="#FFFFFF" font-size="12" font-family="Microsoft YaHei, PingFang SC, Arial">置顶</text>
<text x="368" y="318" fill="#333333" font-size="16" font-weight="700" font-family="Microsoft YaHei, PingFang SC, Arial">校园餐厅系统维护通知</text>
<text x="368" y="340" fill="#777777" font-size="12" font-family="Microsoft YaHei, PingFang SC, Arial">维护时间 22:00-23:00，请提前安排</text>

<rect x="280" y="372" width="1040" height="72" rx="10" fill="#F5F7FB"/>
<rect x="292" y="384" width="64" height="28" rx="14" fill="#A8DADC"/>
<text x="305" y="402" fill="#FFFFFF" font-size="12" font-family="Microsoft YaHei, PingFang SC, Arial">活动</text>
<text x="368" y="398" fill="#333333" font-size="16" font-weight="700" font-family="Microsoft YaHei, PingFang SC, Arial">新学期校园卡充值优惠</text>
<text x="368" y="420" fill="#777777" font-size="12" font-family="Microsoft YaHei, PingFang SC, Arial">截止至 9 月 30 日</text>

<rect x="280" y="452" width="1040" height="72" rx="10" fill="#F5F7FB"/>
<rect x="292" y="464" width="64" height="28" rx="14" fill="#34C79A"/>
<text x="305" y="482" fill="#FFFFFF" font-size="12" font-family="Microsoft YaHei, PingFang SC, Arial">系统</text>
<text x="368" y="478" fill="#333333" font-size="16" font-weight="700" font-family="Microsoft YaHei, PingFang SC, Arial">安全升级完成</text>
<text x="368" y="500" fill="#777777" font-size="12" font-family="Microsoft YaHei, PingFang SC, Arial">版本 2.1.0</text>

<circle cx="1240" cy="220" r="20" fill="#F8D882" opacity="0.5"/>
<rect x="900" y="760" width="40" height="40" rx="10" fill="#A8DADC" opacity="0.5"/>
</svg>