<svg viewBox="0 0 1200 800" xmlns="http://www.w3.org/2000/svg">
  <!-- 背景 -->
  <rect width="1200" height="800" fill="#f8fafc"/>
  
  <!-- 顶部导航栏 -->
  <rect x="0" y="0" width="1200" height="60" fill="white" stroke="#e2e8f0" stroke-width="1"/>
  <circle cx="30" cy="30" r="8" fill="#ec4899"/>
  <text x="50" y="35" font-family="system-ui, -apple-system, sans-serif" font-size="16" fill="#1e293b" font-weight="500">校园通后台管理系统</text>
  
  <!-- 用户头像和按钮 -->
  <circle cx="1100" cy="30" r="16" fill="#f1f5f9"/>
  <circle cx="1140" cy="30" r="16" fill="#f1f5f9"/>
  <text x="1085" y="35" font-family="system-ui, -apple-system, sans-serif" font-size="12" fill="#64748b">用户名</text>
  
  <!-- 侧边栏 -->
  <rect x="0" y="60" width="240" height="740" fill="white" stroke="#e2e8f0" stroke-width="1"/>
  
  <!-- 侧边栏菜单项 -->
  <rect x="16" y="90" width="208" height="48" rx="8" fill="white"/>
  <text x="48" y="118" font-family="system-ui, -apple-system, sans-serif" font-size="14" fill="#64748b">🏠 首页</text>
  
  <rect x="16" y="150" width="208" height="48" rx="8" fill="white"/>
  <text x="48" y="178" font-family="system-ui, -apple-system, sans-serif" font-size="14" fill="#64748b">👥 用户管理</text>
  
  <rect x="16" y="210" width="208" height="48" rx="8" fill="white"/>
  <text x="48" y="238" font-family="system-ui, -apple-system, sans-serif" font-size="14" fill="#64748b">🎭 角色管理</text>
  
  <rect x="16" y="270" width="208" height="48" rx="8" fill="#fef7ff"/>
  <text x="48" y="298" font-family="system-ui, -apple-system, sans-serif" font-size="14" fill="#7c3aed" font-weight="500">💳 消费记录</text>
  
  <rect x="16" y="330" width="208" height="48" rx="8" fill="white"/>
  <text x="48" y="358" font-family="system-ui, -apple-system, sans-serif" font-size="14" fill="#64748b">📢 通知公告</text>
  
  <!-- 面包屑 -->
  <text x="264" y="90" font-family="system-ui, -apple-system, sans-serif" font-size="12" fill="#64748b">消费记录 / 消费查询</text>
  
  <!-- 消费记录内容区域 -->
  <rect x="264" y="110" width="912" height="660" fill="white" rx="12" stroke="#e2e8f0" stroke-width="1"/>
  
  <!-- 页面标题 -->
  <text x="288" y="150" font-family="system-ui, -apple-system, sans-serif" font-size="24" fill="#1e293b" font-weight="600">消费记录查询</text>
  
  <!-- 统计卡片 -->
  <rect x="288" y="180" width="200" height="100" rx="12" fill="white" stroke="#e2e8f0" stroke-width="1"/>
  <circle cx="320" cy="210" r="20" fill="#fef3c7"/>
  <text x="288" y="240" font-family="system-ui, -apple-system, sans-serif" font-size="24" fill="#1e293b" font-weight="600">¥45,678</text>
  <text x="288" y="260" font-family="system-ui, -apple-system, sans-serif" font-size="14" fill="#64748b">本月消费总额</text>
  
  <rect x="508" y="180" width="200" height="100" rx="12" fill="white" stroke="#e2e8f0" stroke-width="1"/>
  <circle cx="540" cy="210" r="20" fill="#e0f2fe"/>
  <text x="508" y="240" font-family="system-ui, -apple-system, sans-serif" font-size="24" fill="#1e293b" font-weight="600">1,234</text>
  <text x="508" y="260" font-family="system-ui, -apple-system, sans-serif" font-size="14" fill="#64748b">本月消费笔数</text>
  
  <rect x="728" y="180" width="200" height="100" rx="12" fill="white" stroke="#e2e8f0" stroke-width="1"/>
  <circle cx="760" cy="210" r="20" fill="#dcfce7"/>
  <text x="728" y="240" font-family="system-ui, -apple-system, sans-serif" font-size="24" fill="#1e293b" font-weight="600">¥156</text>
  <text x="728" y="260" font-family="system-ui, -apple-system, sans-serif" font-size="14" fill="#64748b">平均单笔消费</text>
  
  <!-- 搜索和筛选区域 -->
  <rect x="288" y="300" width="864" height="80" rx="12" fill="#f8fafc"/>
  <text x="308" y="330" font-family="system-ui, -apple-system, sans-serif" font-size="16" fill="#1e293b" font-weight="500">筛选条件</text>
  
  <!-- 日期选择 -->
  <rect x="308" y="345" width="180" height="35" rx="8" fill="white" stroke="#e2e8f0" stroke-width="1"/>
  <text x="328" y="365" font-family="system-ui, -apple-system, sans-serif" font-size="14" fill="#64748b">📅 开始日期</text>
  
  <rect x="508" y="345" width="180" height="35" rx="8" fill="white" stroke="#e2e8f0" stroke-width="1"/>
  <text x="528" y="365" font-family="system-ui, -apple-system, sans-serif" font-size="14" fill="#64748b">📅 结束日期</text>
  
  <!-- 用户类型选择 -->
  <rect x="708" y="345" width="120" height="35" rx="8" fill="white" stroke="#e2e8f0" stroke-width="1"/>
  <text x="728" y="365" font-family="system-ui, -apple-system, sans-serif" font-size="14" fill="#64748b">用户类型</text>
  
  <!-- 消费类型 -->
  <rect x="848" y="345" width="120" height="35" rx="8" fill="white" stroke="#e2e8f0" stroke-width="1"/>
  <text x="868" y="365" font-family="system-ui, -apple-system, sans-serif" font-size="14" fill="#64748b">消费类型</text>
  
  <!-- 搜索按钮 -->
  <rect x="988" y="345" width="120" height="35" rx="8" fill="#7c3aed"/>
  <text x="1028" y="365" font-family="system-ui, -apple-system, sans-serif" font-size="14" fill="white" font-weight="500">🔍 查询</text>
  
  <!-- 消费记录表格 -->
  <rect x="288" y="400" width="864" height="320" rx="12" fill="white" stroke="#e2e8f0" stroke-width="1"/>
  
  <!-- 表格头部 -->
  <rect x="308" y="420" width="824" height="50" fill="#f8fafc" rx="8"/>
  <text x="328" y="445" font-family="system-ui, -apple-system, sans-serif" font-size="14" fill="#64748b" font-weight="500">消费时间</text>
  <text x="468" y="445" font-family="system-ui, -apple-system, sans-serif" font-size="14" fill="#64748b" font-weight="500">用户</text>
  <text x="608" y="445" font-family="system-ui, -apple-system, sans-serif" font-size="14" fill="#64748b" font-weight="500">消费类型</text>
  <text x="748" y="445" font-family="system-ui, -apple-system, sans-serif" font-size="14" fill="#64748b" font-weight="500">金额</text>
  <text x="848" y="445" font-family="system-ui, -apple-system, sans-serif" font-size="14" fill="#64748b" font-weight="500">状态</text>
  <text x="948" y="445" font-family="system-ui, -apple-system, sans-serif" font-size="14" fill="#64748b" font-weight="500">操作</text>
  
  <!-- 表格行 1 -->
  <rect x="308" y="480" width="824" height="60" fill="white"/>
  <text x="328" y="505" font-family="system-ui, -apple-system, sans-serif" font-size="14" fill="#1e293b">2024-01-15 14:30</text>
  <circle cx="468" cy="495" r="12" fill="#f1f5f9"/>
  <text x="488" y="500" font-family="system-ui, -apple-system, sans-serif" font-size="14" fill="#1e293b" font-weight="500">张三</text>
  <text x="488" y="515" font-family="system-ui, -apple-system, sans-serif" font-size="12" fill="#64748b">学生</text>
  <text x="608" y="505" font-family="system-ui, -apple-system, sans-serif" font-size="14" fill="#64748b">食堂消费</text>
  <text x="748" y="505" font-family="system-ui, -apple-system, sans-serif" font-size="14" fill="#16a34a" font-weight="600">¥15.50</text>
  <circle cx="848" cy="495" r="6" fill="#22c55e"/>
  <text x="868" y="500" font-family="system-ui, -apple-system, sans-serif" font-size="14" fill="#64748b">成功</text>
  <text x="948" y="505" font-family="system-ui, -apple-system, sans-serif" font-size="14" fill="#7c3aed">详情</text>
  
  <!-- 表格行 2 -->
  <rect x="308" y="550" width="824" height="60" fill="#f8fafc"/>
  <text x="328" y="575" font-family="system-ui, -apple-system, sans-serif" font-size="14" fill="#1e293b">2024-01-15 12:15</text>
  <circle cx="468" cy="565" r="12" fill="#f1f5f9"/>
  <text x="488" y="570" font-family="system-ui, -apple-system, sans-serif" font-size="14" fill="#1e293b" font-weight="500">李四</text>
  <text x="488" y="585" font-family="system-ui, -apple-system, sans-serif" font-size="12" fill="#64748b">教师</text>
  <text x="608" y="575" font-family="system-ui, -apple-system, sans-serif" font-size="14" fill="#64748b">图书借阅</text>
  <text x="748" y="575" font-family="system-ui, -apple-system, sans-serif" font-size="14" fill="#16a34a" font-weight="600">¥5.00</text>
  <circle cx="848" cy="565" r="6" fill="#22c55e"/>
  <text x="868" y="570" font-family="system-ui, -apple-system, sans-serif" font-size="14" fill="#64748b">成功</text>
  <text x="948" y="575" font-family="system-ui, -apple-system, sans-serif" font-size="14" fill="#7c3aed">详情</text>
  
  <!-- 表格行 3 -->
  <rect x="308" y="620" width="824" height="60" fill="white"/>
  <text x="328" y="645" font-family="system-ui, -apple-system, sans-serif" font-size="14" fill="#1e293b">2024-01-15 09:45</text>
  <circle cx="468" cy="635" r="12" fill="#f1f5f9"/>
  <text x="488" y="640" font-family="system-ui, -apple-system, sans-serif" font-size="14" fill="#1e293b" font-weight="500">王五</text>
  <text x="488" y="655" font-family="system-ui, -apple-system, sans-serif" font-size="12" fill="#64748b">学生</text>
  <text x="608" y="645" font-family="system-ui, -apple-system, sans-serif" font-size="14" fill="#64748b">打印服务</text>
  <text x="748" y="645" font-family="system-ui, -apple-system, sans-serif" font-size="14" fill="#16a34a" font-weight="600">¥2.50</text>
  <circle cx="848" cy="635" r="6" fill="#f59e0b"/>
  <text x="868" y="640" font-family="system-ui, -apple-system, sans-serif" font-size="14" fill="#64748b">处理中</text>
  <text x="948" y="645" font-family="system-ui, -apple-system, sans-serif" font-size="14" fill="#7c3aed">详情</text>
  
  <!-- 分页 -->
  <rect x="288" y="740" width="864" height="40" rx="8" fill="#f8fafc"/>
  <text x="308" y="765" font-family="system-ui, -apple-system, sans-serif" font-size="14" fill="#64748b">共 1,234 条记录</text>
  <rect x="1050" y="725" width="30" height="30" rx="6" fill="white" stroke="#e2e8f0" stroke-width="1"/>
  <text x="1060" y="745" font-family="system-ui, -apple-system, sans-serif" font-size="12" fill="#64748b">‹</text>
  <rect x="1090" y="725" width="30" height="30" rx="6" fill="#7c3aed"/>
  <text x="1100" y="745" font-family="system-ui, -apple-system, sans-serif" font-size="12" fill="white">1</text>
  <rect x="1130" y="725" width="30" height="30" rx="6" fill="white" stroke="#e2e8f0" stroke-width="1"/>
  <text x="1140" y="745" font-family="system-ui, -apple-system, sans-serif" font-size="12" fill="#64748b">2</text>
  <rect x="1170" y="725" width="30" height="30" rx="6" fill="white" stroke="#e2e8f0" stroke-width="1"/>
  <text x="1180" y="745" font-family="system-ui, -apple-system, sans-serif" font-size="12" fill="#64748b">›</text>
  
  <!-- 装饰元素 -->
  <circle cx="200" cy="200" r="15" fill="#fce7f3" opacity="0.6"/>
  <rect x="1000" y="500" width="25" height="25" rx="5" fill="#e0f2fe" opacity="0.6"/>
  <polygon points="120,600 130,580 140,600" fill="#dcfce7" opacity="0.6"/>
</svg>